<?xml version="1.0" encoding="utf-8"?>
<!-- Generator: Adobe Illustrator 24.1.2, SVG Export Plug-In . SVG Version: 6.00 Build 0)  -->
<svg version="1.1" id="Layer_1" xmlns="http://www.w3.org/2000/svg" xmlns:xlink="http://www.w3.org/1999/xlink" x="0px" y="0px"
	 viewBox="0 0 200 200" style="enable-background:new 0 0 200 200;" xml:space="preserve">
<style type="text/css">
	.st0{fill:#FFFFFF;}
	.st1{fill:#0D6EFD;}
	.st2{fill:#10731F;}
</style>
<rect class="st0" width="200" height="200"/>
<g>
	<path class="st1" d="M84.6,150.2h-9.8c-2.5,0-3.2-1.1-2.5-3.2c2.5-6.7,9.1-24.2,19.6-53s17.2-46.7,20-53.7c1.1-2.1,2.5-3.2,4.2-3.2
		h10.2c2.1,0,2.8,1,2.5,3.2L88.4,147C87.8,149.1,86.3,150.2,84.6,150.2z"/>
	<g>
		<path class="st1" d="M196.1,84.2l-64.5-22.1c-2.5-1-3.5-0.3-3.5,2.1V73c0,2.1,1.1,3.5,2.8,3.9l54.7,16.8c4.6,2.1,9.5,4.2,14,6
			c0.4-0.7,0.4-1.4,0.4-2.1v-7.7C200,87,198.6,85.3,196.1,84.2z"/>
		<path class="st2" d="M196.1,103.2c-0.4,1.4-1.8,2.8-3.2,3.2l-64.9,22.1c-2.5,1.1-3.5,0.4-3.5-2.1v-8.8c0-2.1,1.1-3.5,2.8-3.9
			l54.7-16.5C186.7,99.3,191.6,101.1,196.1,103.2z"/>
	</g>
	<g>
		<path class="st1" d="M3.6,106.3l64.5,22.5c2.5,1.1,3.5,0.4,3.5-2.1v-8.8c0-2.1-1.1-3.5-2.8-3.9L14.4,97.2c-4.6-2.1-9.5-4.2-14-6
			c-0.3,0.7-0.3,1.4-0.3,2.1v7.4C-0.3,103.5,1.1,105.6,3.6,106.3z"/>
		<path class="st2" d="M3.6,87.4c0.3-1.4,1.8-2.8,3.5-3.2l64.5-22.1c2.5-1,3.5-0.3,3.5,2.1V73c0,2.1-1.1,3.5-2.8,3.9L17.9,93.3
			C13,91.6,8.5,89.5,3.6,87.4z"/>
	</g>
</g>
</svg>
